<svg xmlns="http://www.w3.org/2000/svg" viewBox="0 0 1024 1024"><defs><style>.cls-1,.cls-2{fill:#dc2238;}.cls-1{fill-rule:evenodd;}</style></defs><g id="_1024" data-name="1024"><path id="path3336-3" class="cls-1" d="M261.81,113.49q-6.39,9.32-12,19.19c-33.59,59.48-57.5,142.7-24.88,207.3,18.31,38.26,25.18,83.69,2.66,121.52a4.74,4.74,0,0,0-.26.5C190.14,545.57,113.53,623,127,721.23a4,4,0,0,0,.09.48c33,153.77,180.14,263.2,331.21,284,136.56,18.42,286-19.28,385.37-117.73,48.95-50.58,68.28-126.94,45-193.92,0-.11-.08-.22-.11-.33-24.85-95.22-99-186.16-68.38-289,9.37-31.64,39.06-79.34,54.56-103a5.46,5.46,0,0,0-6.57-8.07c-12,4.71-27,10.72-31.82,13.09A269.3,269.3,0,0,0,716.69,423.18C696,463,682.78,511.58,687.47,556.56c4.57,43.9,22.47,89.66,7.9,133.47-8.51,25.59-27.84,46.7-50.78,60.87s-49.35,21.89-75.94,26.38c-46.78,7.9-96.51,5.83-139.37-14.51-76.6-36.36-97.54-121.16-68.22-196.73,11.55-29.78,27.83-57.53,39.8-87.15,18.77-46.5,23.58-107,2.55-153.56-22-48.79-60.6-78.88-68.73-135.72-7.7-53.91,28.07-133.13,45.6-167.9a5.46,5.46,0,0,0-7.73-7.11c-7.69,4.72-15.92,9.83-19.82,12.45a421.44,421.44,0,0,0-39.9,30.11A295.69,295.69,0,0,0,261.81,113.49Z"/><circle id="path4168" class="cls-2" cx="527.57" cy="143.17" r="128.13"/></g></svg>