<svg xmlns="http://www.w3.org/2000/svg" viewBox="0 0 256 256"><defs><style>.cls-1,.cls-2{fill:#dc2238;}.cls-1{fill-rule:evenodd;}</style></defs><g id="_256" data-name="256"><path id="path3336-3" class="cls-1" d="M65,28.1q-1.61,2.34-3,4.83c-8.46,15-14.47,35.93-6.26,52.2,4.62,9.65,6.35,21.12.63,30.66C47,136.87,27.63,156.4,31.08,181.19c8.29,38.75,45.35,66.33,83.41,71.57,34.38,4.64,72-4.85,97-29.64,12.34-12.75,17.2-32,11.32-48.87-6.24-24-25-46.9-17.23-72.82,2.68-9,11.95-23.29,15.11-28a.59.59,0,0,0-.71-.88c-3,1.16-8.76,3.44-10.32,4.2a67.83,67.83,0,0,0-30.15,29.33c-5.2,10-8.54,22.26-7.36,33.58,1.15,11.06,5.66,22.58,2,33.61-2.14,6.44-7,11.76-12.78,15.33s-12.43,5.51-19.13,6.64c-11.78,2-24.3,1.47-35.09-3.65C87.88,182.43,82.61,161.08,90,142.05c2.91-7.5,7-14.49,10-21.94,4.73-11.71,5.94-26.94.65-38.67C95.11,69.15,85.4,61.58,83.35,47.27c-2.15-15,6.84-36.66,9.72-43.08a.59.59,0,0,0-.87-.72L87.9,6.33a104.48,104.48,0,0,0-10.05,7.58A75,75,0,0,0,65,28.1Z"/><circle id="path4168" class="cls-2" cx="131.92" cy="34.36" r="32.26"/></g></svg>