<svg xmlns="http://www.w3.org/2000/svg" viewBox="0 0 128 128"><defs><style>.cls-1,.cls-2{fill:#dc2238;}.cls-1{fill-rule:evenodd;}</style></defs><g id="_128" data-name="128"><path id="path3336-3" class="cls-1" d="M32.92,14.71c-.53.77-1,1.57-1.49,2.39-4.17,7.39-7.14,17.72-3.09,25.75,2.28,4.76,3.13,10.42.31,15.12C24,68.38,14.48,78,16.18,90.24c4.09,19.12,22.38,32.72,41.15,35.31,17,2.29,35.54-2.39,47.88-14.62a23.9,23.9,0,0,0,5.58-24.11c-3.08-11.84-12.31-23.14-8.5-35.93,1.32-4.46,5.89-11.49,7.45-13.81a.29.29,0,0,0-.35-.44c-1.46.57-4.32,1.7-5.09,2.08a33.5,33.5,0,0,0-5.94,3.73,33.08,33.08,0,0,0-8.93,10.74c-2.57,4.94-4.21,11-3.63,16.56s2.79,11.14,1,16.58a14.64,14.64,0,0,1-6.31,7.57A26,26,0,0,1,71,97.17c-5.81,1-12,.73-17.32-1.8-9.51-4.52-12.11-15.05-8.47-24.44,1.43-3.7,3.46-7.14,4.94-10.82,2.34-5.78,2.93-13.29.32-19.08C47.77,35,43,31.23,42,24.17c-1.06-7.42,3.38-18.09,4.8-21.25a.29.29,0,0,0-.43-.36L44.21,4a51,51,0,0,0-5,3.74A36.59,36.59,0,0,0,32.92,14.71Z"/><circle id="path4168" class="cls-2" cx="65.93" cy="17.8" r="15.92"/></g></svg>