<svg xmlns="http://www.w3.org/2000/svg" viewBox="0 0 48 48"><defs><style>.cls-1,.cls-2{fill:#5ee6df;}.cls-1{fill-rule:evenodd;}</style></defs><g id="_48" data-name="48"><path id="path3336-3" class="cls-1" d="M12.42,5.49c-.2.29-.38.59-.56.89C10.31,9.13,9.2,13,10.71,16a5.92,5.92,0,0,1,.12,5.63c-1.72,3.88-5.28,7.47-4.65,12,1.53,7.13,8.34,12.2,15.34,13.16,6.32.85,13.24-.89,17.83-5.45a8.87,8.87,0,0,0,2.08-9c-.56-1.63-1.15-3.22-1.83-4.82A19.43,19.43,0,0,1,38,22.61a8,8,0,0,1,.52-4.31,28.12,28.12,0,0,1,1.28-2.58c.23-.42.48-.83.74-1.23.12-.2.73-1,.09-.76a13.12,13.12,0,0,0-7.18,6.1A11.36,11.36,0,0,0,32.12,26c.21,2,1,4.15.37,6.18A5.51,5.51,0,0,1,30.14,35a9.9,9.9,0,0,1-3.52,1.22,10.94,10.94,0,0,1-6.45-.67c-3.54-1.69-4.51-5.61-3.16-9.11.54-1.38,1.29-2.66,1.85-4A9.51,9.51,0,0,0,19,15.3C18,13,16.17,11.65,15.79,9a13.23,13.23,0,0,1,0-3.77,10.4,10.4,0,0,1,.48-2c.1-.3.21-.6.3-.91a5.17,5.17,0,0,0,.16-.68.33.33,0,0,0,0-.17.08.08,0,0,0,0,0s-.05,0-.07,0a18,18,0,0,0-1.85,1.4A13.57,13.57,0,0,0,12.42,5.49Z"/><path id="path4168" class="cls-2" d="M23.42,1.2a6.7,6.7,0,0,1,5.27.85,5.39,5.39,0,0,1,2.07,6.44,6,6,0,0,1-5.49,3.68c-4.61,0-8-5.86-4.59-9.46A5.62,5.62,0,0,1,23.42,1.2Z"/></g></svg>